<?xml version="1.0" standalone="no"?>
<!DOCTYPE svg PUBLIC "-//W3C//DTD SVG 20010904//EN"
 "http://www.w3.org/TR/2001/REC-SVG-20010904/DTD/svg10.dtd">
<svg version="1.0" xmlns="http://www.w3.org/2000/svg"
 width="4550.000000pt" height="1896.000000pt" viewBox="0 0 4550.000000 1896.000000"
 preserveAspectRatio="xMidYMid meet">
<metadata>
Created by potrace 1.15, written by Peter Selinger 2001-2017
</metadata>
<g transform="translate(0.000000,1896.000000) scale(0.100000,-0.100000)"
fill="#000000" stroke="none">
<path d="M7380 11374 c-104 -9 -343 -47 -442 -69 -496 -112 -965 -342 -1350
-662 -48 -40 -91 -73 -96 -73 -13 0 -107 129 -147 203 -20 37 -41 65 -45 62
-22 -14 -55 109 -73 268 l-13 112 -46 -47 c-25 -26 -66 -87 -91 -135 -26 -48
-46 -82 -47 -74 0 27 -38 -19 -61 -75 -12 -29 -26 -51 -30 -49 -4 3 -23 -34
-43 -82 -71 -169 -120 -379 -138 -593 l-12 -135 -59 -73 c-167 -206 -316 -511
-446 -915 -28 -87 -51 -161 -51 -165 0 -4 24 36 53 88 29 52 68 119 86 148 32
51 50 68 36 35 -108 -262 -184 -653 -209 -1078 l-6 -90 35 125 c64 234 61 235
68 -15 7 -234 22 -374 63 -568 103 -488 349 -999 680 -1412 293 -366 757 -732
1209 -955 520 -257 1070 -375 1665 -357 569 18 1033 137 1346 347 86 58 248
215 304 295 30 43 52 59 155 113 147 77 258 142 252 148 -2 3 -56 -2 -118 -10
-63 -8 -186 -20 -274 -27 -88 -6 -171 -16 -185 -22 -14 -7 -49 -31 -78 -54
-63 -50 -74 -51 -264 -27 -1023 129 -1944 693 -2529 1547 -44 64 -78 117 -75
117 2 0 29 -9 58 -21 48 -18 60 -29 98 -87 94 -142 286 -302 467 -388 163 -77
375 -133 593 -154 327 -33 697 55 986 235 283 177 525 466 643 770 80 203 111
373 111 600 0 308 -68 572 -213 828 -52 93 -71 116 -131 165 -115 92 -316 299
-404 417 -97 128 -210 347 -262 504 -24 70 -41 105 -52 109 -10 2 -20 13 -23
23 -4 10 -12 19 -20 19 -7 0 -21 22 -31 49 -35 100 -45 26 -18 -143 20 -126
67 -265 131 -390 28 -53 48 -96 46 -96 -14 0 -128 98 -188 161 -382 403 -392
1044 -21 1456 l46 51 -27 6 c-124 27 -264 38 -503 41 -146 1 -285 1 -310 -1z
m-395 -611 c-19 -15 -19 -15 -1 -9 48 17 151 24 208 15 54 -9 98 -24 98 -33 0
-2 -28 -14 -62 -27 -42 -15 -56 -24 -44 -29 13 -4 2 -16 -47 -52 -79 -58 -200
-185 -257 -267 -55 -82 -117 -207 -136 -273 -72 -261 -90 -384 -81 -574 6
-138 30 -222 97 -352 l41 -77 -7 220 c-4 121 -7 284 -8 362 -1 79 -5 143 -9
143 -5 0 -5 9 -2 21 4 11 7 57 8 101 l1 81 21 -28 c48 -68 91 -107 149 -135
53 -26 84 -33 207 -46 199 -20 372 -50 425 -73 59 -27 68 -52 49 -143 -17 -85
-56 -148 -134 -221 -47 -43 -86 -65 -212 -121 -186 -82 -396 -190 -427 -219
-17 -16 -21 -28 -17 -49 4 -18 2 -28 -5 -28 -7 0 -9 -10 -6 -27 13 -57 8 -190
-8 -246 -9 -31 -19 -57 -22 -57 -3 0 -18 8 -32 18 -52 36 -57 36 -25 0 32 -37
49 -75 39 -85 -3 -3 -21 9 -41 26 -35 30 -184 111 -205 111 -8 0 -7 -6 0 -20
13 -25 9 -25 -42 1 -35 18 -60 21 -162 22 -149 1 -247 -20 -361 -78 l-82 -42
-11 86 c-76 571 -11 1167 184 1709 40 110 51 132 68 132 11 0 62 -12 114 -27
l93 -26 51 49 c29 28 52 44 55 37 2 -7 22 6 48 30 61 58 154 114 164 98 6 -9
16 -7 42 8 45 26 174 77 241 95 67 18 67 18 43 -1z m-460 -2742 c28 -24 44
-40 38 -37 -7 4 -13 3 -13 -1 0 -5 44 -35 98 -67 53 -32 89 -55 79 -52 -12 4
-16 2 -11 -5 14 -23 153 -79 238 -95 112 -22 206 -11 397 47 73 22 167 47 207
55 232 45 457 -22 616 -183 66 -66 90 -115 83 -170 -9 -80 -70 -115 -163 -93
-95 23 -165 0 -404 -133 -232 -128 -192 -120 -431 -81 -112 18 -221 36 -242
39 -79 12 -387 96 -495 134 -96 35 -194 81 -212 101 -3 3 -11 6 -18 8 -16 3
-67 54 -81 81 -6 10 -8 29 -5 42 7 32 12 58 18 94 3 17 7 40 10 53 3 12 8 31
11 42 3 11 7 28 9 38 2 9 16 44 31 77 14 33 26 62 27 65 3 20 64 153 76 164 3
3 23 -14 46 -37 23 -24 64 -62 91 -86z"/>
<path d="M22000 10615 l0 -505 35 0 c33 0 35 2 46 45 6 25 14 45 16 45 3 0 23
-15 44 -34 95 -87 274 -86 370 1 71 64 109 168 109 298 0 215 -95 346 -263
362 -84 8 -165 -16 -217 -64 l-40 -35 0 196 0 196 -50 0 -50 0 0 -505z m396
106 c82 -37 109 -99 109 -256 0 -102 -2 -114 -30 -170 -24 -49 -38 -64 -75
-82 -87 -45 -208 -19 -256 54 -31 46 -48 150 -41 245 10 121 49 190 122 216
48 17 126 13 171 -7z"/>
<path d="M31812 10925 c2 -107 1 -195 -2 -195 -3 0 -10 8 -16 18 -21 33 -109
72 -177 79 -130 12 -222 -39 -279 -155 -31 -62 -33 -75 -37 -184 -3 -99 0
-129 19 -189 41 -135 150 -208 295 -197 69 6 136 36 177 80 l27 29 7 -50 7
-51 43 0 44 0 0 505 0 505 -56 0 -56 0 4 -195z m-131 -196 c52 -18 98 -67 114
-123 18 -59 20 -218 4 -282 -23 -92 -105 -141 -217 -132 -78 7 -138 61 -162
147 -15 53 -12 200 4 255 36 120 139 174 257 135z"/>
<path d="M15020 11055 c-73 -20 -129 -61 -160 -115 -33 -60 -34 -164 -2 -226
37 -73 92 -112 239 -170 161 -63 204 -102 205 -185 1 -61 -19 -97 -71 -127
-43 -25 -54 -27 -156 -27 -100 1 -160 11 -240 41 -12 5 -15 -4 -15 -50 l0 -55
58 -18 c83 -25 277 -25 354 1 63 20 130 72 154 117 24 46 33 119 23 173 -19
100 -72 147 -247 217 -174 69 -207 97 -217 180 -8 56 17 106 65 134 49 28 210
27 292 -3 l57 -20 15 46 c9 25 16 47 16 48 0 2 -30 13 -67 24 -90 28 -230 35
-303 15z"/>
<path d="M18480 11057 c-154 -35 -262 -135 -313 -290 -28 -85 -30 -275 -3
-362 52 -172 155 -267 321 -296 77 -13 215 -7 285 14 44 13 45 13 48 60 2 26
0 47 -4 47 -4 0 -43 -7 -87 -16 -218 -44 -374 21 -439 185 -19 47 -22 75 -22
181 0 108 3 133 23 184 30 75 96 147 164 177 71 33 225 33 305 2 l53 -21 24
48 25 49 -68 21 c-83 27 -235 35 -312 17z"/>
<path d="M28115 11057 c-152 -39 -256 -147 -296 -307 -8 -32 -14 -104 -14
-170 1 -167 35 -268 121 -360 69 -74 185 -120 303 -120 l47 0 93 -105 92 -105
82 0 82 0 -115 115 c-63 63 -112 116 -110 118 3 2 23 11 46 21 98 42 181 155
210 283 20 91 15 281 -10 359 -37 117 -135 220 -246 260 -60 21 -221 27 -285
11z m232 -102 c77 -23 127 -64 162 -137 82 -167 58 -430 -50 -537 -57 -58
-110 -76 -219 -76 -84 0 -102 3 -152 28 -111 55 -158 146 -166 322 -7 170 32
289 114 351 78 60 207 80 311 49z"/>
<path d="M28961 10617 c-96 -243 -181 -457 -188 -475 l-14 -33 57 3 57 3 57
145 57 145 192 0 192 0 57 -145 58 -145 58 -3 c45 -2 57 0 53 10 -4 11 -349
888 -364 926 -3 7 -24 12 -52 12 l-46 0 -174 -443z m229 292 c0 -6 32 -95 70
-198 39 -104 70 -191 70 -195 0 -3 -68 -6 -151 -6 -117 0 -150 3 -146 13 2 6
34 91 71 188 36 97 66 184 66 193 0 9 5 16 10 16 6 0 10 -5 10 -11z"/>
<path d="M15651 10968 c-4 -13 -14 -47 -22 -77 -13 -51 -16 -54 -66 -77 -44
-19 -53 -27 -53 -48 0 -24 3 -26 49 -26 l49 0 4 -252 3 -253 27 -46 c17 -29
41 -53 63 -63 45 -22 127 -30 180 -19 38 8 40 11 43 50 l3 41 -64 -5 c-74 -6
-99 4 -127 50 -18 29 -20 52 -20 265 l0 232 105 0 105 0 0 40 0 40 -105 0
-105 0 0 85 0 85 -30 0 c-22 0 -33 -6 -39 -22z"/>
<path d="M17401 10968 c-4 -13 -14 -47 -22 -77 -13 -51 -16 -54 -66 -77 -44
-19 -53 -27 -53 -48 0 -24 3 -26 49 -26 l49 0 4 -252 3 -253 27 -46 c17 -29
41 -53 63 -63 45 -22 127 -30 180 -19 38 8 40 11 43 50 l3 41 -64 -5 c-74 -6
-99 4 -127 50 -18 29 -20 52 -20 265 l0 232 105 0 105 0 0 40 0 40 -105 0
-105 0 0 85 0 85 -30 0 c-22 0 -33 -6 -39 -22z"/>
<path d="M20681 10968 c-4 -13 -14 -47 -22 -77 -13 -51 -16 -54 -66 -77 -44
-19 -53 -27 -53 -48 0 -24 3 -26 49 -26 l49 0 4 -252 c3 -249 3 -254 28 -297
41 -73 140 -106 245 -84 38 8 40 11 43 50 l3 41 -58 -5 c-72 -6 -107 7 -133
49 -18 30 -20 51 -20 266 l0 232 105 0 105 0 0 40 0 40 -105 0 -105 0 0 85 0
85 -30 0 c-22 0 -33 -6 -39 -22z"/>
<path d="M23677 10983 c-2 -5 -14 -40 -25 -78 -21 -69 -22 -71 -72 -92 -42
-18 -50 -26 -50 -47 0 -24 3 -26 49 -26 l49 0 4 -252 c3 -249 3 -254 28 -297
41 -73 140 -106 245 -84 38 8 40 11 43 50 l3 41 -58 -5 c-72 -6 -107 7 -133
49 -18 30 -20 51 -20 266 l0 232 105 0 105 0 0 40 0 40 -105 0 -105 0 0 85 0
85 -29 0 c-17 0 -32 -3 -34 -7z"/>
<path d="M30117 10983 c-2 -5 -14 -39 -25 -78 -21 -68 -23 -71 -72 -92 -41
-18 -50 -26 -50 -47 0 -24 3 -26 49 -26 l49 0 4 -252 c3 -249 3 -254 28 -297
41 -73 140 -106 245 -84 38 8 40 11 43 50 l3 41 -58 -5 c-72 -6 -107 7 -133
49 -18 30 -20 51 -20 266 l0 232 105 0 105 0 0 40 0 40 -105 0 -105 0 0 85 0
85 -29 0 c-17 0 -32 -3 -34 -7z"/>
<path d="M16232 10815 c-29 -7 -70 -20 -92 -30 l-39 -18 15 -35 c8 -20 16 -37
18 -39 2 -2 28 6 57 17 30 12 83 24 120 27 114 10 166 -33 176 -146 l5 -57
-138 -11 c-84 -7 -159 -19 -188 -30 -102 -37 -156 -122 -142 -222 16 -117 112
-180 258 -168 76 7 118 25 170 74 l36 35 11 -38 c6 -22 11 -45 11 -51 0 -8 15
-13 40 -13 l40 0 0 266 c0 294 -6 338 -54 389 -56 59 -182 80 -304 50z m248
-428 c0 -76 -21 -121 -77 -161 -52 -36 -148 -47 -206 -23 -73 31 -86 131 -26
188 37 35 123 55 247 58 l62 1 0 -63z"/>
<path d="M17067 10816 c-48 -18 -102 -59 -124 -96 -24 -41 -33 -38 -33 13 0
77 -7 87 -56 87 l-44 0 0 -355 0 -355 54 0 55 0 3 228 c3 210 5 230 25 267 46
86 118 129 204 123 l57 -4 7 44 c5 32 3 47 -7 53 -20 13 -98 10 -141 -5z"/>
<path d="M19225 10824 c-103 -26 -164 -74 -207 -162 -32 -65 -33 -70 -33 -197
0 -150 14 -191 85 -269 61 -66 125 -91 235 -91 78 0 97 4 147 28 99 49 149
124 170 260 28 181 -46 350 -179 409 -45 20 -175 33 -218 22z m170 -103 c49
-23 68 -43 97 -106 18 -41 22 -68 22 -150 0 -82 -4 -109 -22 -150 -29 -63 -48
-83 -97 -106 -79 -36 -184 -20 -240 38 -46 47 -65 114 -65 224 0 134 34 209
112 248 54 27 138 28 193 2z"/>
<path d="M20085 10821 c-47 -12 -97 -41 -127 -73 l-27 -29 -6 28 c-4 15 -8 38
-11 51 -4 19 -11 22 -49 22 l-45 0 0 -355 0 -355 55 0 55 0 0 210 c0 223 9
290 43 342 37 54 81 73 169 73 87 0 120 -17 150 -76 16 -30 18 -66 18 -291 l0
-258 55 0 55 0 0 253 c0 138 -5 272 -11 297 -24 106 -94 159 -221 165 -40 2
-86 1 -103 -4z"/>
<path d="M21329 10802 c-32 -17 -66 -45 -84 -69 -16 -23 -33 -42 -37 -42 -5
-1 -8 21 -8 48 0 73 -5 81 -56 81 l-44 0 0 -355 0 -355 54 0 54 0 4 228 c3
211 5 230 25 268 45 85 125 130 214 122 l48 -5 7 43 c3 23 3 47 -1 53 -3 6
-32 11 -64 11 -45 0 -71 -7 -112 -28z"/>
<path d="M24695 10821 c-47 -12 -97 -41 -127 -73 l-27 -29 -6 28 c-4 15 -8 38
-11 51 -4 19 -11 22 -49 22 l-45 0 0 -355 0 -355 55 0 55 0 0 210 c0 223 9
290 43 342 37 54 81 73 169 73 87 0 120 -17 150 -76 16 -30 18 -66 18 -291 l0
-258 55 0 55 0 0 253 c0 138 -5 272 -11 297 -24 106 -94 159 -221 165 -40 2
-86 1 -103 -4z"/>
<path d="M25388 10817 c-25 -7 -57 -21 -71 -30 -65 -42 -105 -138 -93 -224 7
-50 46 -127 74 -142 47 -28 48 -29 19 -51 -33 -26 -57 -70 -57 -105 0 -32 24
-81 46 -93 14 -8 11 -11 -18 -21 -39 -13 -96 -64 -109 -99 -14 -37 -10 -111 8
-149 44 -94 229 -138 415 -99 137 29 205 89 223 192 8 51 -9 121 -38 152 -49
53 -92 65 -248 71 -102 4 -151 10 -163 20 -25 21 -21 77 9 106 20 21 33 25 88
25 179 0 288 99 274 248 -2 33 -12 73 -21 90 l-16 31 32 5 c18 3 47 7 63 8 26
3 30 7 33 36 l3 32 -108 0 c-59 0 -151 2 -203 5 -63 3 -111 1 -142 -8z m181
-85 c55 -27 74 -62 74 -132 0 -45 -5 -68 -20 -88 -61 -84 -223 -82 -274 2 -24
40 -25 120 -1 165 9 19 33 43 52 53 44 23 124 23 169 0z m118 -638 c23 -17 29
-30 31 -71 2 -42 -1 -55 -22 -81 -36 -42 -97 -64 -196 -69 -103 -6 -162 8
-203 48 -27 27 -29 35 -25 80 3 28 13 58 24 70 37 42 70 49 221 46 126 -2 145
-4 170 -23z"/>
<path d="M26925 10821 c-47 -12 -97 -41 -127 -73 l-27 -29 -6 28 c-4 15 -8 38
-11 51 -4 19 -11 22 -49 22 l-45 0 0 -355 0 -355 55 0 55 0 0 210 c0 223 9
290 43 342 37 54 81 73 169 73 87 0 120 -17 150 -76 16 -30 18 -66 18 -291 l0
-258 55 0 55 0 0 253 c0 138 -5 272 -11 297 -24 106 -94 159 -221 165 -40 2
-86 1 -103 -4z"/>
<path d="M30718 10817 c-151 -43 -224 -169 -216 -376 5 -123 23 -174 87 -244
62 -67 126 -92 236 -92 79 0 97 4 147 28 117 57 170 158 172 322 1 171 -52
280 -165 338 -68 35 -185 45 -261 24z m174 -87 c53 -15 92 -52 118 -112 19
-44 24 -71 24 -153 0 -87 -3 -107 -26 -157 -33 -71 -83 -107 -159 -115 -110
-11 -195 42 -224 141 -20 67 -19 210 1 270 37 109 144 159 266 126z"/>
<path d="M32340 10823 c-31 -5 -85 -22 -128 -40 l-32 -13 15 -37 c9 -20 17
-38 19 -40 2 -2 28 6 57 17 30 12 83 24 120 27 114 10 163 -31 175 -145 l7
-59 -116 -7 c-238 -14 -335 -69 -353 -197 -20 -146 91 -242 262 -226 74 7 115
25 165 74 40 38 39 39 54 -34 6 -31 10 -33 46 -33 l39 0 0 266 c0 294 -6 338
-54 389 -50 52 -165 77 -276 58z m218 -446 c-4 -86 -31 -132 -95 -162 -53 -26
-139 -31 -186 -11 -63 26 -83 107 -42 172 28 43 124 70 264 73 l63 1 -4 -73z"/>
<path d="M21660 10465 l0 -355 50 0 50 0 0 355 0 355 -50 0 -50 0 0 -355z"/>
<path d="M22800 10551 c0 -288 6 -329 53 -379 47 -50 95 -66 197 -66 106 0
158 18 210 76 l28 30 7 -51 7 -51 44 0 44 0 0 355 0 355 -54 0 -55 0 -3 -247
c-3 -234 -4 -250 -25 -289 -35 -66 -82 -89 -178 -89 -63 0 -86 4 -109 20 -54
37 -60 65 -64 348 l-4 257 -49 0 -49 0 0 -269z"/>
<path d="M24100 10465 l0 -355 50 0 50 0 0 355 0 355 -50 0 -50 0 0 -355z"/>
<path d="M26330 10465 l0 -355 50 0 50 0 0 355 0 355 -50 0 -50 0 0 -355z"/>
<path d="M32921 10473 c77 -192 141 -355 141 -363 3 -24 -42 -131 -70 -169
-32 -44 -82 -64 -149 -59 l-53 3 0 -41 c0 -38 2 -42 31 -48 128 -25 229 26
290 146 12 23 88 218 169 433 82 214 153 402 159 418 l11 27 -59 0 -59 0 -101
-285 c-55 -157 -101 -292 -101 -300 0 -34 -16 -11 -33 48 -10 34 -59 169 -109
300 l-91 237 -58 0 -57 0 139 -347z"/>
<path d="M21808 8830 c-94 -28 -139 -94 -146 -212 l-5 -77 -63 -21 c-55 -19
-64 -25 -64 -46 0 -23 3 -24 65 -24 l65 0 0 -315 0 -315 50 0 50 0 0 315 0
315 90 0 90 0 0 45 0 45 -90 0 -90 0 0 30 c0 67 21 129 53 156 28 24 37 26 87
21 30 -3 62 -8 71 -12 13 -5 20 4 32 39 l15 45 -49 10 c-58 13 -122 13 -161 1z"/>
<path d="M25400 8325 l0 -505 50 0 50 0 0 505 0 505 -50 0 -50 0 0 -505z"/>
<path d="M25740 8325 l0 -505 50 0 50 0 0 505 0 505 -50 0 -50 0 0 -505z"/>
<path d="M28820 8325 l0 -505 50 0 50 0 0 505 0 505 -50 0 -50 0 0 -505z"/>
<path d="M29970 8325 l0 -505 35 0 c33 0 35 2 46 45 6 25 14 45 16 45 3 0 23
-15 44 -34 95 -87 274 -86 370 1 71 64 109 168 109 298 0 165 -57 281 -164
338 -33 17 -58 21 -131 21 -99 0 -134 -12 -192 -67 l-33 -31 0 197 0 197 -50
0 -50 0 0 -505z m400 103 c83 -42 117 -133 107 -286 -7 -113 -43 -187 -107
-219 -81 -42 -198 -22 -248 41 -36 46 -47 95 -47 211 0 124 17 184 63 227 56
52 157 63 232 26z"/>
<path d="M31520 8325 l0 -505 50 0 50 0 0 505 0 505 -50 0 -50 0 0 -505z"/>
<path d="M14880 8296 l0 -476 193 0 c212 0 277 10 351 54 58 34 92 85 107 160
15 71 1 144 -38 194 -25 34 -111 82 -145 82 -10 0 -18 5 -18 10 0 6 7 10 15
10 29 0 94 40 119 73 34 45 48 113 36 177 -12 64 -21 80 -64 118 -61 53 -116
64 -348 69 l-208 5 0 -476z m432 351 c102 -44 106 -210 6 -264 -26 -13 -65
-18 -180 -21 l-148 -4 0 157 0 157 143 -4 c101 -3 153 -9 179 -21z m22 -407
c59 -30 86 -75 86 -142 0 -58 -13 -95 -48 -131 -40 -42 -107 -57 -254 -57
l-128 0 0 181 0 181 148 -4 c134 -3 152 -5 196 -28z"/>
<path d="M17930 8295 l0 -475 55 0 55 0 0 190 0 190 88 0 c96 0 202 19 254 45
85 43 138 124 146 221 13 162 -67 262 -233 293 -32 6 -128 11 -212 11 l-153 0
0 -475z m392 348 c138 -63 129 -269 -15 -328 -28 -12 -80 -20 -154 -23 l-113
-5 0 193 0 192 118 -4 c92 -3 127 -8 164 -25z"/>
<path d="M22440 8295 l0 -475 50 0 51 0 -3 420 c-2 230 0 416 3 412 3 -4 59
-146 124 -317 64 -170 135 -356 157 -412 l39 -103 44 0 c41 0 44 2 60 43 9 23
82 211 162 417 79 206 145 376 146 377 1 1 0 -187 -1 -418 l-4 -419 56 0 56 0
0 475 0 475 -82 0 -83 0 -150 -390 c-82 -214 -152 -390 -155 -390 -3 0 -72
176 -154 390 l-149 390 -84 0 -83 0 0 -475z"/>
<path d="M26790 8753 c0 -10 5 -87 12 -170 l11 -153 32 0 c32 0 33 1 39 53 3
28 8 95 11 147 3 52 8 105 11 118 4 21 1 22 -56 22 -50 0 -60 -3 -60 -17z"/>
<path d="M20051 8678 c-4 -13 -14 -47 -22 -77 -13 -51 -16 -54 -66 -77 -44
-19 -53 -27 -53 -48 0 -24 3 -26 49 -26 l49 0 4 -252 3 -253 27 -46 c17 -29
41 -53 63 -63 45 -22 127 -30 180 -19 38 8 40 11 43 50 l3 41 -64 -5 c-74 -6
-99 4 -127 50 -18 29 -20 52 -20 265 l0 232 105 0 105 0 0 40 0 40 -105 0
-105 0 0 85 0 85 -30 0 c-22 0 -33 -6 -39 -22z"/>
<path d="M38147 8693 c-2 -5 -14 -40 -25 -78 -21 -69 -22 -71 -72 -92 -42 -18
-50 -26 -50 -47 0 -24 3 -26 49 -26 l49 0 4 -252 c3 -249 3 -254 28 -297 41
-73 140 -106 245 -84 38 8 40 11 43 50 l3 41 -58 -5 c-72 -6 -107 7 -133 49
-18 30 -20 51 -20 266 l0 232 105 0 105 0 0 40 0 40 -105 0 -105 0 0 85 0 85
-29 0 c-17 0 -32 -3 -34 -7z"/>
<path d="M15912 8526 c-86 -28 -147 -87 -189 -181 -26 -60 -25 -271 1 -340 25
-65 94 -137 159 -166 45 -21 67 -24 167 -23 89 0 126 5 165 20 48 19 50 21 53
63 4 49 16 47 -103 17 -71 -18 -154 -20 -210 -5 -77 21 -145 119 -145 208 l0
31 246 0 247 0 -8 82 c-12 146 -66 237 -165 281 -57 25 -161 31 -218 13z m177
-96 c49 -24 80 -74 88 -139 l6 -51 -188 0 -187 0 7 37 c14 78 72 152 130 166
47 11 108 6 144 -13z"/>
<path d="M16982 8525 c-29 -7 -70 -20 -92 -30 l-39 -18 15 -35 c8 -20 16 -37
18 -39 2 -2 28 6 57 17 30 12 83 24 120 27 114 10 166 -33 176 -146 l5 -57
-138 -11 c-84 -7 -159 -19 -188 -30 -102 -37 -156 -122 -142 -222 16 -117 112
-180 258 -168 76 7 118 25 170 74 l36 35 11 -38 c6 -22 11 -45 11 -51 0 -8 15
-13 40 -13 l40 0 0 266 c0 294 -6 338 -54 389 -56 59 -182 80 -304 50z m248
-428 c0 -76 -21 -121 -77 -161 -52 -36 -148 -47 -206 -23 -73 31 -86 131 -26
188 37 35 123 55 247 58 l62 1 0 -63z"/>
<path d="M18872 8525 c-29 -7 -70 -20 -92 -30 l-39 -18 15 -35 c8 -20 16 -37
18 -39 2 -2 28 6 57 17 30 12 83 24 120 27 114 10 166 -33 176 -146 l5 -57
-138 -11 c-84 -7 -159 -19 -188 -30 -102 -37 -156 -122 -142 -222 16 -117 112
-180 258 -168 76 7 118 25 170 74 l36 35 11 -38 c6 -22 11 -45 11 -51 0 -8 15
-13 40 -13 l40 0 0 266 c0 294 -6 338 -54 389 -56 59 -182 80 -304 50z m248
-428 c0 -76 -21 -121 -77 -161 -52 -36 -148 -47 -206 -23 -73 31 -86 131 -26
188 37 35 123 55 247 58 l62 1 0 -63z"/>
<path d="M19707 8526 c-48 -18 -102 -59 -124 -96 -24 -41 -33 -38 -33 13 0 77
-7 87 -56 87 l-44 0 0 -355 0 -355 54 0 55 0 3 228 c3 210 5 230 25 267 46 86
118 129 204 123 l57 -4 7 44 c5 32 3 47 -7 53 -20 13 -98 10 -141 -5z"/>
<path d="M21008 8527 c-100 -29 -172 -105 -204 -216 -23 -77 -15 -249 14 -313
29 -66 93 -132 155 -159 42 -19 69 -24 142 -24 79 0 97 4 147 28 117 57 170
158 172 322 1 171 -52 280 -165 338 -68 35 -185 45 -261 24z m174 -87 c53 -15
92 -52 119 -112 19 -44 23 -70 23 -153 0 -87 -4 -108 -26 -157 -33 -71 -83
-107 -159 -115 -110 -11 -195 42 -224 141 -20 67 -19 210 1 270 37 109 144
159 266 126z"/>
<path d="M23808 8527 c-100 -29 -172 -105 -204 -216 -23 -77 -15 -249 14 -313
29 -66 93 -132 155 -159 42 -19 69 -24 142 -24 79 0 97 4 147 28 117 57 170
158 172 322 2 169 -53 281 -165 338 -68 35 -185 45 -261 24z m174 -87 c53 -15
92 -52 119 -112 19 -44 23 -70 23 -153 0 -87 -4 -108 -26 -157 -79 -171 -330
-154 -383 26 -20 67 -19 210 1 270 37 109 144 159 266 126z"/>
<path d="M26250 8533 c-31 -5 -85 -22 -128 -40 l-32 -13 15 -37 c9 -20 17 -38
19 -40 2 -2 28 6 57 17 30 12 83 24 120 27 114 10 163 -31 175 -145 l7 -59
-116 -7 c-238 -14 -335 -69 -353 -197 -20 -146 91 -242 262 -226 74 7 115 25
165 74 40 38 39 39 54 -34 6 -31 10 -33 46 -33 l39 0 0 266 c0 294 -6 338 -54
389 -50 52 -165 77 -276 58z m218 -446 c-4 -86 -31 -132 -95 -162 -53 -26
-139 -31 -186 -11 -63 26 -83 107 -42 172 28 43 124 70 264 73 l63 1 -4 -73z"/>
<path d="M27227 8530 c-60 -16 -114 -47 -139 -82 -18 -26 -23 -46 -23 -95 0
-95 37 -133 183 -193 42 -17 101 -43 130 -57 113 -54 108 -161 -9 -193 -58
-16 -179 -7 -251 19 l-58 20 0 -48 c0 -41 3 -49 25 -59 45 -21 157 -35 229
-29 164 13 246 81 246 204 0 94 -54 144 -230 213 -125 49 -170 83 -170 127 1
37 19 59 63 78 59 24 176 16 269 -20 12 -5 21 2 32 24 9 16 16 37 16 45 0 35
-225 68 -313 46z"/>
<path d="M28218 8527 c-25 -7 -57 -21 -71 -30 -65 -42 -105 -138 -93 -224 7
-50 46 -127 74 -142 47 -28 48 -29 19 -51 -33 -26 -57 -70 -57 -105 0 -32 24
-81 46 -93 13 -7 9 -12 -23 -24 -43 -18 -91 -62 -104 -96 -14 -37 -10 -111 8
-149 44 -94 229 -138 415 -99 137 29 205 89 223 192 8 51 -9 121 -38 152 -49
53 -92 65 -248 71 -102 4 -151 10 -163 20 -25 21 -21 77 9 106 20 21 33 25 88
25 179 0 288 99 274 248 -2 33 -12 73 -21 90 l-16 31 32 5 c18 3 47 7 63 8 26
3 30 7 33 36 l3 32 -108 0 c-59 0 -151 2 -203 5 -63 3 -111 1 -142 -8z m181
-85 c55 -27 74 -62 74 -132 0 -45 -5 -68 -20 -88 -61 -84 -223 -82 -274 2 -24
40 -25 120 -1 165 9 19 33 43 52 53 44 23 124 23 169 0z m118 -638 c23 -17 29
-30 31 -71 2 -42 -1 -55 -22 -81 -36 -42 -97 -64 -196 -69 -103 -6 -162 8
-203 48 -27 27 -29 35 -25 80 3 28 13 58 24 70 37 42 70 49 221 46 126 -2 145
-4 170 -23z"/>
<path d="M29338 8527 c-100 -29 -172 -105 -204 -216 -23 -77 -15 -249 14 -313
29 -66 93 -132 155 -159 42 -19 69 -24 142 -24 78 0 97 4 147 28 99 49 149
124 170 260 28 181 -46 350 -179 409 -58 26 -181 33 -245 15z m174 -87 c53
-15 92 -52 119 -112 33 -76 33 -230 1 -303 -29 -63 -48 -83 -97 -106 -117 -54
-255 5 -290 125 -20 67 -19 210 1 270 37 109 144 159 266 126z"/>
<path d="M30960 8533 c-31 -5 -85 -22 -128 -40 l-32 -13 15 -37 c9 -20 17 -38
19 -40 1 -1 29 7 62 18 32 12 86 24 120 26 109 9 159 -33 170 -145 l7 -59
-116 -7 c-233 -14 -332 -67 -352 -188 -15 -89 20 -166 95 -208 39 -22 57 -25
135 -25 101 1 135 13 197 72 l36 35 11 -38 c6 -22 11 -45 11 -51 0 -8 15 -13
40 -13 l40 0 0 271 c0 298 -5 331 -55 384 -49 52 -165 77 -275 58z m218 -446
c-4 -86 -31 -132 -95 -162 -53 -26 -139 -31 -186 -11 -63 26 -83 107 -42 172
28 43 124 70 269 73 l58 1 -4 -73z"/>
<path d="M32388 8526 c-100 -27 -172 -102 -204 -215 -23 -78 -16 -259 13 -322
30 -66 85 -123 146 -150 62 -27 202 -33 280 -10 l47 14 0 48 0 48 -42 -15
c-24 -9 -77 -18 -118 -21 -65 -4 -81 -1 -120 19 -84 43 -114 117 -108 267 4
116 29 178 89 218 50 33 136 41 211 19 31 -9 58 -16 61 -16 3 0 12 20 20 45
18 53 16 55 -71 74 -68 14 -144 13 -204 -3z"/>
<path d="M33018 8526 c-149 -40 -224 -169 -216 -375 5 -123 23 -174 87 -244
62 -67 126 -92 236 -92 78 0 97 4 147 28 100 49 150 126 170 265 23 159 -34
315 -138 382 -77 48 -188 62 -286 36z m174 -86 c53 -15 92 -52 118 -112 34
-76 34 -231 2 -303 -29 -63 -48 -83 -97 -106 -117 -54 -255 5 -290 125 -20 67
-19 210 1 270 37 109 144 159 266 126z"/>
<path d="M33888 8531 c-41 -14 -95 -49 -117 -78 l-20 -25 -6 26 c-3 14 -7 37
-10 51 -5 22 -11 25 -45 25 l-40 0 0 -355 0 -355 49 0 49 0 4 243 c3 236 4
244 28 292 58 114 230 130 297 28 16 -24 18 -57 21 -295 l3 -268 49 0 48 0 4
238 c5 257 10 287 65 345 46 47 149 62 212 29 67 -34 71 -54 71 -349 l0 -263
56 0 55 0 -3 278 c-3 302 -7 324 -66 385 -83 87 -312 66 -384 -36 l-20 -28
-24 35 c-35 51 -94 79 -179 82 -38 2 -82 -1 -97 -5z"/>
<path d="M35128 8531 c-41 -14 -95 -49 -117 -78 l-20 -25 -6 26 c-3 14 -7 37
-10 51 -5 22 -11 25 -45 25 l-40 0 0 -355 0 -355 49 0 49 0 4 243 c3 236 4
244 28 292 58 114 230 130 297 28 16 -24 18 -57 21 -295 l3 -268 48 0 49 0 4
238 c5 257 11 288 65 345 46 47 149 62 212 29 67 -34 71 -54 71 -349 l0 -263
56 0 55 0 -3 278 c-3 302 -7 324 -66 385 -83 87 -312 66 -384 -36 l-20 -28
-24 35 c-35 51 -94 79 -179 82 -38 2 -82 -1 -97 -5z"/>
<path d="M37200 8531 c-52 -17 -109 -51 -128 -78 l-20 -28 -6 25 c-17 86 -13
80 -61 80 l-45 0 0 -355 0 -355 55 0 55 0 0 210 c0 223 9 290 43 342 37 54 81
73 169 73 87 0 120 -17 150 -76 16 -30 18 -66 18 -291 l0 -258 55 0 55 0 0
253 c0 138 -5 272 -11 297 -24 108 -97 161 -228 166 -42 2 -87 0 -101 -5z"/>
<path d="M24400 8490 l0 -40 179 -2 179 -3 -194 -279 c-158 -227 -194 -285
-194 -312 l0 -34 260 0 260 0 0 40 0 40 -195 2 -195 3 190 270 c173 247 189
274 190 313 l0 42 -240 0 -240 0 0 -40z"/>
<path d="M25060 8175 l0 -355 50 0 50 0 0 355 0 355 -50 0 -50 0 0 -355z"/>
<path d="M36120 8261 c0 -288 6 -329 53 -379 47 -50 95 -66 197 -66 106 0 158
18 210 76 l28 30 7 -51 7 -51 44 0 44 0 0 355 0 355 -54 0 -55 0 -3 -247 c-3
-234 -4 -250 -25 -289 -35 -66 -82 -89 -178 -89 -93 0 -123 14 -151 73 -16 32
-19 71 -22 295 l-4 257 -49 0 -49 0 0 -269z"/>
<path d="M37770 8175 l0 -355 50 0 50 0 0 355 0 355 -50 0 -50 0 0 -355z"/>
<path d="M38591 8183 c77 -192 141 -355 141 -363 3 -24 -42 -131 -70 -169 -32
-44 -82 -64 -149 -59 l-53 3 0 -41 c0 -38 2 -42 31 -48 128 -25 229 26 290
146 12 23 88 218 169 433 82 214 153 402 159 418 l11 27 -59 0 -59 0 -101
-285 c-55 -157 -101 -292 -101 -300 0 -34 -16 -11 -33 48 -10 34 -59 169 -109
300 l-91 237 -58 0 -57 0 139 -347z"/>
<path d="M10645 6783 c-85 -136 -266 -363 -427 -535 -55 -60 -96 -108 -92
-108 15 0 203 111 265 156 127 93 225 211 269 325 16 40 20 70 18 130 l-3 79
-30 -47z"/>
<path d="M23998 6540 c-94 -28 -139 -94 -146 -212 l-5 -77 -63 -21 c-55 -19
-64 -25 -64 -46 0 -23 3 -24 65 -24 l65 0 0 -315 0 -315 50 0 50 0 0 315 0
315 90 0 90 0 0 45 0 45 -90 0 -90 0 0 30 c0 67 21 129 53 156 28 24 37 26 87
21 30 -3 62 -8 71 -12 13 -5 20 4 32 39 l15 45 -49 10 c-58 13 -122 13 -161 1z"/>
<path d="M19710 6035 l0 -505 50 0 50 0 0 134 0 134 41 37 41 36 126 -170 126
-171 64 0 c50 0 62 3 55 13 -162 212 -293 388 -293 393 0 4 64 73 141 155
l141 149 -64 0 -63 0 -124 -131 c-68 -71 -139 -148 -157 -171 l-34 -40 0 321
0 321 -50 0 -50 0 0 -505z"/>
<path d="M14880 6005 l0 -475 265 0 265 0 0 50 0 50 -210 0 -210 0 0 425 0
425 -55 0 -55 0 0 -475z"/>
<path d="M17780 6005 l0 -475 50 0 51 0 -3 420 c-2 230 0 416 3 412 3 -4 59
-146 124 -317 65 -170 135 -356 157 -412 l39 -103 44 0 c25 0 45 5 48 13 3 6
75 194 162 417 86 223 157 406 158 407 1 1 0 -187 -1 -418 l-4 -419 56 0 56 0
0 475 0 475 -82 0 -83 0 -150 -390 c-82 -215 -152 -390 -155 -390 -3 0 -72
176 -154 390 l-150 390 -83 0 -83 0 0 -475z"/>
<path d="M21520 6005 l0 -475 55 0 55 0 0 200 0 200 195 0 195 0 0 50 0 50
-195 0 -195 0 0 175 0 175 210 0 210 0 0 50 0 50 -265 0 -265 0 0 -475z"/>
<path d="M26140 6005 l0 -477 223 4 222 3 68 33 c82 41 121 88 138 170 15 72
1 150 -37 199 -26 34 -112 83 -146 83 -10 0 -18 5 -18 10 0 6 7 10 15 10 9 0
33 9 55 20 82 42 121 136 99 239 -9 44 -20 65 -53 97 -65 65 -113 76 -358 82
l-208 4 0 -477z m434 350 c21 -10 47 -32 57 -49 25 -42 25 -121 -1 -163 -34
-56 -68 -67 -232 -71 l-148 -4 0 157 0 157 143 -4 c113 -3 150 -8 181 -23z
m19 -404 c99 -48 119 -190 39 -274 -40 -42 -107 -57 -254 -57 l-128 0 0 181 0
181 148 -4 c130 -3 152 -6 195 -27z"/>
<path d="M29963 6413 c4 -38 12 -193 18 -345 l12 -278 34 0 c18 0 33 1 33 3 6
83 30 589 30 630 l0 57 -66 0 -67 0 6 -67z"/>
<path d="M16351 6388 c-4 -13 -14 -47 -22 -77 -13 -51 -16 -54 -66 -77 -44
-19 -53 -27 -53 -48 0 -24 3 -26 49 -26 l49 0 4 -252 3 -253 27 -46 c17 -29
41 -53 63 -63 45 -22 127 -30 180 -19 38 8 40 11 43 50 l3 41 -64 -5 c-74 -6
-99 4 -127 50 -18 29 -20 52 -20 265 l0 232 105 0 105 0 0 40 0 40 -105 0
-105 0 0 85 0 85 -30 0 c-22 0 -33 -6 -39 -22z"/>
<path d="M27787 6403 c-2 -5 -14 -40 -25 -78 -21 -69 -22 -71 -72 -92 -42 -18
-50 -26 -50 -47 0 -24 3 -26 49 -26 l49 0 4 -252 c3 -249 3 -254 28 -297 41
-73 140 -106 245 -84 38 8 40 11 43 50 l3 41 -58 -5 c-72 -6 -107 7 -133 49
-18 30 -20 51 -20 266 l0 232 105 0 105 0 0 40 0 40 -105 0 -105 0 0 85 0 85
-29 0 c-17 0 -32 -3 -34 -7z"/>
<path d="M28257 6403 c-2 -5 -14 -40 -25 -78 -21 -69 -22 -71 -72 -92 -42 -18
-50 -26 -50 -47 0 -24 3 -26 49 -26 l49 0 4 -252 c3 -249 3 -254 28 -297 41
-73 140 -106 245 -84 38 8 40 11 43 50 l3 41 -58 -5 c-72 -6 -107 7 -133 49
-18 30 -20 51 -20 266 l0 232 105 0 105 0 0 40 0 40 -105 0 -105 0 0 85 0 85
-29 0 c-17 0 -32 -3 -34 -7z"/>
<path d="M15742 6236 c-86 -28 -147 -87 -189 -181 -26 -60 -25 -271 1 -340 25
-65 94 -137 159 -166 45 -21 67 -24 167 -23 89 0 126 5 165 20 48 19 50 21 53
63 4 49 16 47 -103 17 -71 -18 -154 -20 -210 -5 -77 21 -145 119 -145 208 l0
31 246 0 247 0 -8 82 c-12 146 -66 237 -165 281 -57 25 -161 31 -218 13z m177
-96 c49 -24 80 -74 88 -139 l6 -51 -188 0 -187 0 7 37 c14 78 72 152 130 166
47 11 108 6 144 -13z"/>
<path d="M16897 6240 c-124 -32 -183 -109 -163 -215 14 -71 62 -106 259 -186
95 -38 137 -77 137 -125 0 -45 -33 -79 -91 -94 -58 -16 -179 -7 -251 19 l-58
20 0 -48 c0 -41 3 -49 25 -59 45 -21 157 -35 229 -29 164 13 246 81 246 204 0
94 -55 145 -229 212 -124 48 -171 83 -171 128 1 37 19 59 63 78 59 24 176 16
269 -20 12 -5 21 2 32 24 9 16 16 37 16 45 0 35 -225 68 -313 46z"/>
<path d="M19122 6235 c-29 -7 -70 -20 -92 -30 l-39 -18 15 -35 c8 -20 16 -37
18 -39 2 -2 28 6 57 17 30 12 83 24 120 27 114 10 166 -33 176 -146 l5 -57
-138 -11 c-84 -7 -159 -19 -188 -30 -102 -37 -156 -122 -142 -222 16 -117 112
-180 258 -168 76 7 118 25 170 74 l36 35 11 -38 c6 -22 11 -45 11 -51 0 -8 15
-13 40 -13 l40 0 0 266 c0 294 -6 338 -54 389 -56 59 -182 80 -304 50z m248
-428 c0 -76 -21 -121 -77 -161 -52 -36 -148 -47 -206 -23 -73 31 -86 131 -26
188 37 35 123 55 247 58 l62 1 0 -63z"/>
<path d="M20582 6236 c-86 -28 -147 -87 -189 -181 -26 -60 -25 -271 1 -340 25
-65 94 -137 159 -166 45 -21 67 -24 167 -23 89 0 126 5 165 20 48 19 50 21 53
63 4 49 16 47 -103 17 -71 -18 -154 -20 -210 -5 -77 21 -145 119 -145 208 l0
31 246 0 247 0 -8 82 c-12 146 -66 237 -165 281 -57 25 -161 31 -218 13z m177
-96 c49 -24 80 -74 88 -139 l6 -51 -188 0 -187 0 7 37 c14 78 72 152 130 166
47 11 108 6 144 -13z"/>
<path d="M22749 6222 c-32 -17 -66 -45 -84 -69 -16 -23 -33 -42 -37 -42 -5 -1
-8 21 -8 48 0 73 -5 81 -56 81 l-44 0 0 -355 0 -355 54 0 54 0 4 228 c3 211 5
230 25 268 45 85 125 130 214 122 l48 -5 7 43 c3 23 3 47 -1 53 -3 6 -32 11
-64 11 -45 0 -71 -7 -112 -28z"/>
<path d="M23252 6236 c-148 -48 -218 -174 -210 -375 5 -126 27 -186 91 -249
71 -70 123 -87 257 -86 89 0 126 5 165 20 48 19 50 21 53 62 4 48 -2 50 -69
27 -62 -22 -184 -30 -239 -15 -82 22 -150 117 -150 209 l0 31 246 0 247 0 -7
80 c-12 143 -62 232 -158 281 -53 27 -167 34 -226 15z m178 -98 c50 -26 80
-74 88 -144 l5 -44 -188 0 -187 0 7 37 c8 45 36 102 62 125 55 50 144 61 213
26z"/>
<path d="M24458 6237 c-150 -43 -224 -171 -216 -376 5 -123 23 -174 87 -244
62 -67 126 -92 236 -92 79 0 97 4 147 28 117 57 170 158 172 322 2 169 -53
281 -165 338 -68 35 -185 45 -261 24z m174 -87 c53 -15 92 -52 119 -112 19
-44 23 -70 23 -153 0 -87 -4 -108 -26 -157 -79 -171 -330 -154 -383 26 -20 67
-19 210 1 270 37 109 144 159 266 126z"/>
<path d="M27162 6236 c-148 -48 -218 -174 -210 -375 5 -126 27 -186 91 -249
71 -70 123 -87 257 -86 89 0 126 5 165 20 48 19 50 21 53 63 4 49 11 48 -103
17 -69 -19 -153 -21 -210 -5 -77 21 -145 119 -145 208 l0 31 246 0 247 0 -7
80 c-12 143 -62 232 -158 281 -53 27 -167 34 -226 15z m178 -98 c50 -26 80
-74 88 -144 l5 -44 -188 0 -187 0 7 37 c8 45 36 102 62 125 55 50 144 61 213
26z"/>
<path d="M28852 6236 c-148 -48 -218 -174 -210 -375 5 -126 27 -186 91 -249
71 -70 123 -87 257 -86 89 0 126 5 165 20 48 19 50 21 53 63 4 49 11 48 -103
17 -69 -19 -153 -21 -210 -5 -77 21 -145 119 -145 208 l0 31 246 0 247 0 -7
80 c-12 143 -62 232 -158 281 -53 27 -167 34 -226 15z m178 -98 c50 -26 80
-74 88 -144 l5 -44 -188 0 -187 0 7 37 c8 45 36 102 62 125 55 50 144 61 213
26z"/>
<path d="M29649 6222 c-32 -17 -66 -45 -84 -69 -16 -23 -33 -42 -37 -42 -5 -1
-8 21 -8 48 0 73 -5 81 -56 81 l-44 0 0 -355 0 -355 54 0 54 0 4 228 c3 211 5
230 25 268 45 85 125 130 214 122 l48 -5 7 45 c8 54 -1 62 -72 62 -37 0 -67
-8 -105 -28z"/>
<path d="M22190 5885 l0 -355 50 0 50 0 0 355 0 355 -50 0 -50 0 0 -355z"/>
<path d="M25007 6228 c83 -109 234 -332 230 -342 -3 -7 -57 -85 -119 -172 -63
-88 -117 -165 -122 -171 -5 -10 7 -13 52 -13 l59 0 98 140 c54 77 101 140 104
140 3 0 49 -63 101 -140 l95 -139 62 -1 62 0 -129 181 c-72 101 -127 186 -123
193 4 6 58 82 120 169 62 86 113 160 113 162 0 3 -26 5 -57 5 -56 0 -59 -2
-84 -38 -14 -20 -56 -81 -93 -135 l-68 -98 -92 133 -93 133 -63 3 c-51 2 -61
0 -53 -10z"/>
<path d="M29975 5665 c-19 -18 -25 -35 -25 -65 0 -69 56 -108 113 -79 32 17
37 28 37 82 0 34 -6 53 -20 67 -28 28 -75 26 -105 -5z"/>
<path d="M39230 2705 l0 -375 1140 0 1140 0 0 375 0 375 -1140 0 -1140 0 0
-375z m1730 212 c0 -16 -116 -423 -125 -437 -9 -15 -75 -13 -75 3 0 6 28 110
61 230 l61 217 39 0 c25 0 39 -5 39 -13z m170 -2 c0 -12 -84 -323 -116 -427
-4 -13 -16 -18 -45 -18 -21 0 -39 4 -39 8 0 12 107 393 120 426 8 21 16 26 45
26 25 0 35 -4 35 -15z m-1552 -155 c17 -11 32 -25 32 -32 0 -6 14 1 31 18 42
41 106 41 146 1 26 -25 28 -35 31 -116 4 -79 6 -90 24 -94 15 -4 19 -12 16
-34 -3 -27 -5 -28 -65 -31 l-63 -3 0 104 c0 118 -9 141 -55 135 -39 -4 -55
-37 -55 -110 0 -51 2 -58 20 -58 16 0 20 -7 20 -35 l0 -35 -59 0 -59 0 -4 110
c-3 116 -9 129 -52 130 -40 0 -56 -28 -56 -101 0 -66 1 -68 28 -71 23 -3 27
-8 27 -33 l0 -30 -87 -3 -88 -3 0 36 c0 28 4 35 20 35 18 0 20 7 20 81 0 72
-2 81 -20 86 -14 4 -20 14 -20 34 0 29 1 29 60 29 46 0 60 -3 60 -15 0 -12 6
-11 33 5 17 11 43 20 57 20 14 0 40 -9 58 -20z m552 -2 c54 -27 80 -73 80
-138 0 -89 -64 -150 -158 -150 -87 0 -144 43 -157 119 -23 138 109 232 235
169z m1203 13 c54 -21 67 -48 67 -137 0 -91 5 -114 26 -114 19 0 18 -36 -2
-44 -44 -17 -104 4 -104 36 0 5 -14 -2 -31 -16 -80 -67 -196 7 -149 95 17 30
64 49 125 49 48 0 55 2 55 20 0 19 -32 60 -47 60 -26 -1 -52 -14 -56 -29 -3
-14 -12 -17 -36 -13 -26 4 -31 9 -31 32 0 32 13 45 60 58 46 13 93 14 123 3z
m-803 -25 c0 -15 -27 -54 -75 -109 -41 -47 -75 -88 -75 -91 0 -3 20 -6 44 -6
35 0 45 4 49 20 4 15 14 20 36 20 34 0 38 -13 25 -79 l-6 -31 -129 0 -129 0
-6 25 c-5 20 6 38 62 102 110 125 104 113 51 113 -42 0 -47 -3 -53 -26 -5 -20
-12 -24 -33 -22 -22 3 -26 8 -29 42 -6 66 -7 66 138 66 130 0 130 0 130 -24z"/>
<path d="M40000 2683 c-42 -54 -9 -153 52 -153 10 0 30 11 43 25 33 32 35 105
5 135 -29 29 -74 26 -100 -7z"/>
<path d="M32780 2745 c-316 -72 -539 -275 -625 -569 -111 -385 72 -785 438
-956 124 -58 202 -73 367 -68 113 4 148 9 215 32 l80 27 198 -80 c109 -43 197
-74 194 -68 -2 7 -21 62 -42 124 l-39 111 -165 67 -166 66 -74 -30 c-95 -40
-186 -55 -281 -48 -233 18 -446 186 -522 414 -33 97 -32 279 1 373 85 240 290
395 541 408 161 8 308 -45 428 -154 195 -176 253 -466 141 -699 l-19 -39 36
-111 c20 -60 39 -113 43 -117 8 -9 65 66 108 142 17 30 44 93 59 140 27 79 28
95 28 245 0 154 -2 163 -32 249 -47 133 -102 218 -206 321 -104 104 -214 168
-351 205 -104 28 -267 35 -355 15z"/>
<path d="M34431 2524 c-200 -54 -334 -193 -376 -389 -18 -87 -18 -113 0 -200
33 -154 132 -284 267 -348 150 -72 271 -75 423 -12 l61 25 134 -55 c73 -30
136 -53 138 -51 2 2 -19 68 -47 145 l-50 141 25 55 c57 131 53 290 -11 422
-102 207 -350 325 -564 267z m225 -233 c141 -64 206 -229 145 -366 -97 -218
-399 -225 -505 -13 -21 41 -26 67 -26 123 0 116 59 208 164 256 56 25 167 25
222 0z"/>
<path d="M36793 2526 c-190 -46 -343 -203 -382 -394 -57 -277 141 -554 426
-595 235 -34 467 112 543 342 61 185 17 365 -124 507 -130 129 -297 180 -463
140z m222 -235 c56 -25 101 -66 133 -120 24 -41 27 -56 27 -136 0 -80 -3 -95
-27 -135 -55 -94 -138 -142 -243 -142 -295 0 -386 402 -120 528 64 30 170 33
230 5z"/>
<path d="M35220 2032 l0 -502 115 0 115 0 0 210 c0 116 3 210 7 210 4 0 67
-60 140 -132 l133 -133 133 133 c73 72 136 132 140 132 4 0 7 -94 7 -210 l0
-210 115 0 115 0 0 502 0 503 -255 -255 -255 -255 -255 255 -255 255 0 -503z"/>
<path d="M39230 2208 l0 -73 52 0 53 0 0 -101 0 -102 28 24 c34 28 93 32 137
9 81 -42 87 -200 11 -269 -32 -29 -103 -33 -146 -8 -26 16 -35 18 -35 8 0 -14
-27 -25 -45 -19 -6 2 -9 77 -7 207 l3 204 -26 4 -25 5 0 -278 0 -279 569 0
569 0 -34 34 c-39 39 -42 52 -15 61 13 4 28 -4 49 -25 62 -62 149 -27 159 63
l6 48 -39 -26 c-44 -30 -95 -30 -140 0 -77 50 -67 219 15 268 40 23 102 22
134 -3 25 -20 25 -20 30 1 5 17 12 20 49 17 36 -2 44 -7 46 -25 3 -19 -1 -23
-22 -23 l-26 0 0 -140 c0 -161 -10 -198 -62 -230 l-33 -20 983 0 982 0 0 76
c0 51 -3 73 -11 68 -6 -3 -41 -6 -77 -6 -61 0 -67 2 -70 21 -3 17 2 21 22 21
26 0 26 0 26 90 0 77 -3 93 -20 110 -29 29 -66 25 -101 -9 -27 -28 -29 -34
-29 -110 0 -80 0 -81 26 -81 20 0 25 -4 22 -21 -3 -19 -9 -21 -73 -21 -64 0
-70 2 -73 21 -3 17 2 21 22 21 l26 0 0 185 0 185 -25 0 c-20 0 -25 5 -25 25 0
23 3 25 50 25 l50 0 0 -100 0 -100 33 20 c48 30 102 26 138 -9 28 -29 29 -32
29 -129 l0 -100 30 -4 30 -5 0 284 0 283 -1610 0 -1610 0 0 -72z m1520 -278
l0 -210 26 0 c20 0 25 -4 22 -21 -3 -19 -9 -21 -71 -21 -68 0 -95 10 -83 31 4
6 18 11 32 11 l24 0 0 185 0 185 -24 0 c-28 0 -40 14 -32 35 4 11 21 15 56 15
l50 0 0 -210z m678 -2 l2 -208 26 0 c20 0 25 -4 22 -20 -2 -12 -6 -21 -10 -20
-5 0 -26 0 -48 0 -34 0 -40 3 -40 21 0 20 -1 20 -31 -5 -47 -40 -108 -36 -156
8 -34 31 -37 39 -41 98 -5 79 14 130 60 158 44 26 107 26 142 -1 l26 -20 0 75
0 76 -35 0 c-31 0 -35 3 -35 25 0 25 2 26 58 23 l57 -3 3 -207z m-1607 23 c28
-29 29 -32 29 -130 0 -100 0 -102 26 -111 22 -9 24 -13 14 -25 -23 -28 -90 -8
-90 27 0 5 -14 -2 -31 -16 -64 -54 -159 -20 -159 56 0 65 49 98 149 98 l44 0
-7 33 c-3 17 -14 38 -23 45 -36 27 -103 5 -103 -34 0 -8 -9 -14 -20 -14 -16 0
-20 7 -20 35 0 44 33 64 108 65 46 0 58 -4 83 -29z m199 9 c0 -20 0 -20 33 0
42 26 97 26 130 0 33 -26 47 -75 47 -167 0 -67 2 -73 21 -73 15 0 20 -5 17
-21 -3 -19 -9 -21 -73 -21 -64 0 -70 2 -73 21 -3 17 2 21 22 21 26 0 26 0 26
90 0 78 -3 93 -21 111 -27 27 -75 20 -106 -17 -20 -21 -23 -36 -23 -105 0 -78
0 -79 26 -79 20 0 25 -4 22 -21 -3 -19 -9 -21 -73 -21 -64 0 -70 2 -73 21 -3
17 2 21 22 21 l26 0 0 105 0 105 -25 0 c-20 0 -25 5 -25 25 0 23 3 25 50 25
43 0 50 -3 50 -20z m1024 -5 c25 -23 26 -29 26 -119 0 -108 4 -126 32 -126 33
0 18 -34 -17 -38 -23 -3 -35 3 -52 25 -13 15 -23 22 -23 16 0 -18 -53 -43 -90
-43 -38 0 -90 47 -90 82 0 56 62 98 145 98 43 0 45 1 45 30 0 40 -37 65 -84
56 -26 -5 -36 -12 -38 -29 -3 -22 -48 -39 -48 -19 0 69 27 90 116 91 41 1 56
-4 78 -24z m666 10 c37 -19 60 -63 60 -115 l0 -40 -106 0 c-93 0 -105 -2 -100
-16 3 -9 6 -20 6 -25 0 -25 42 -49 85 -49 36 0 47 4 61 25 19 30 54 34 54 6 0
-10 -16 -33 -35 -50 -29 -25 -45 -31 -81 -31 -91 0 -144 54 -144 148 0 66 23
118 64 143 37 23 96 24 136 4z m300 2 c19 -9 26 -22 28 -50 3 -31 0 -37 -17
-37 -13 0 -21 8 -23 22 -7 52 -118 46 -118 -6 0 -21 7 -27 43 -37 94 -26 108
-31 122 -52 22 -32 18 -63 -13 -98 -23 -25 -38 -33 -78 -36 -27 -3 -68 0 -92
7 -42 11 -43 12 -40 48 2 29 7 37 23 37 13 0 21 -8 23 -21 4 -28 55 -39 100
-23 26 9 32 16 32 40 0 25 -5 30 -42 40 -95 26 -109 31 -123 52 -23 33 -18 65
14 98 25 25 37 29 83 29 29 0 64 -6 78 -13z"/>
<path d="M41253 1928 c-26 -13 -53 -65 -53 -102 0 -45 26 -95 53 -101 73 -19
127 29 127 111 0 73 -68 122 -127 92z"/>
<path d="M39394 1930 c-37 -15 -54 -50 -54 -110 0 -70 25 -100 83 -100 63 0
95 50 84 132 -9 64 -61 100 -113 78z"/>
<path d="M40415 1931 c-41 -18 -59 -50 -59 -106 0 -43 5 -59 24 -80 33 -36 82
-34 121 4 25 25 29 37 29 83 0 44 -5 59 -22 76 -27 25 -66 34 -93 23z"/>
<path d="M39232 1118 l3 -373 93 -3 c87 -3 92 -2 92 18 0 16 6 20 35 20 l35 0
0 76 0 77 -26 -27 c-21 -21 -36 -26 -74 -26 -87 0 -136 63 -127 162 11 126
122 187 212 117 l25 -20 0 20 c0 15 6 21 23 21 l22 0 -3 -200 c-4 -197 -4
-200 17 -200 14 0 21 -6 21 -20 0 -20 7 -20 1740 -20 1713 0 1740 0 1740 19 0
14 8 21 27 23 23 2 31 12 46 52 l18 50 -52 127 c-38 93 -57 129 -71 133 -11 2
-18 11 -16 18 3 9 27 14 71 16 62 3 67 1 67 -18 0 -15 -6 -20 -25 -20 -14 0
-25 -2 -25 -4 0 -2 11 -29 25 -59 13 -31 32 -73 41 -94 l16 -38 28 78 c45 121
44 117 21 117 -14 0 -21 6 -21 20 0 18 7 20 65 20 58 0 65 -2 65 -20 0 -13 -7
-20 -18 -20 -14 0 -33 -37 -85 -168 -37 -92 -67 -173 -67 -180 0 -6 8 -12 19
-12 10 0 21 -9 24 -20 5 -19 12 -21 69 -18 l63 3 3 373 2 372 -2060 0 -2060 0
2 -372z m3636 109 l3 -47 60 0 c52 0 59 -2 59 -20 0 -18 -7 -20 -60 -20 l-60
0 0 -91 c0 -103 9 -129 46 -129 19 0 29 7 37 30 12 32 15 34 35 21 17 -10 6
-54 -19 -77 -11 -10 -35 -17 -61 -17 -33 0 -47 6 -65 27 -21 25 -23 37 -23
132 l0 104 -25 0 c-18 0 -25 5 -25 20 0 15 7 20 25 20 23 0 25 4 25 43 0 48 6
59 30 55 10 -2 16 -17 18 -51z m-3073 -52 c46 -19 55 -46 55 -161 0 -86 2 -94
19 -94 24 0 37 -18 23 -32 -18 -18 -65 -12 -80 11 -14 20 -15 20 -41 2 -39
-27 -70 -32 -107 -16 -58 24 -71 84 -30 132 21 24 32 28 95 31 70 4 71 5 71
32 0 40 -24 60 -72 60 -35 0 -41 -3 -51 -30 -14 -38 -41 -36 -45 3 -4 35 11
54 52 66 46 14 73 13 111 -4z m488 4 c38 -10 57 -37 57 -80 0 -28 -43 -22 -49
6 -5 27 -19 35 -62 35 -56 0 -84 -36 -84 -112 0 -53 3 -63 28 -84 16 -14 41
-24 58 -24 31 0 69 30 69 55 0 9 9 15 25 15 30 0 31 -14 5 -57 -24 -41 -51
-55 -105 -55 -51 -1 -87 19 -116 65 -16 25 -19 45 -17 94 4 72 25 108 79 135
39 21 59 22 112 7z m317 -7 c53 -26 80 -74 80 -141 0 -96 -54 -153 -146 -153
-92 0 -148 65 -142 163 8 118 108 181 208 131z m369 3 c16 -8 32 -22 35 -31 6
-15 11 -13 37 12 42 40 106 41 146 2 26 -26 28 -34 31 -133 4 -104 5 -105 29
-105 18 0 24 -5 21 -17 -5 -25 -135 -32 -144 -8 -8 19 -2 26 23 29 15 2 18 14
21 74 2 46 -2 83 -12 106 -13 32 -19 36 -50 36 -40 0 -72 -25 -81 -63 -3 -12
-5 -52 -3 -87 3 -59 5 -65 26 -68 14 -2 22 -10 22 -23 0 -17 -8 -19 -70 -19
-62 0 -70 2 -70 19 0 10 9 21 20 24 18 5 20 13 20 84 0 98 -13 127 -61 131
-27 2 -40 -3 -59 -23 -22 -24 -25 -35 -25 -108 0 -82 0 -82 28 -85 19 -2 27
-9 27 -23 0 -17 -8 -19 -81 -19 -78 0 -80 1 -77 23 2 16 9 21 26 19 22 -3 22
-2 22 107 l0 111 -25 0 c-18 0 -25 5 -25 20 0 17 7 20 50 20 43 0 50 -3 50
-20 0 -18 2 -18 36 5 42 29 73 31 113 10z m590 -20 l25 -25 29 28 c22 21 38
27 72 27 78 0 105 -48 105 -187 0 -71 2 -78 20 -78 13 0 20 -7 20 -20 0 -18
-7 -20 -70 -20 -62 0 -70 2 -70 19 0 13 8 21 23 23 12 2 21 6 20 11 -2 4 -3
45 -3 91 0 64 -4 88 -16 100 -23 24 -71 20 -99 -9 -23 -22 -25 -32 -25 -110 0
-84 0 -85 25 -85 19 0 25 -5 25 -20 0 -19 -5 -21 -72 -18 -59 2 -73 6 -76 20
-2 11 5 18 20 20 21 3 23 9 26 68 4 85 -15 144 -47 148 -72 11 -101 -30 -101
-143 l0 -75 31 0 c24 0 30 -4 27 -17 -3 -15 -16 -18 -81 -21 -71 -3 -77 -1
-77 17 0 13 8 21 23 23 21 3 22 8 25 111 l3 107 -26 0 c-18 0 -25 5 -25 20 0
17 7 20 50 20 45 0 50 -2 50 -22 l0 -21 23 20 c12 11 29 23 37 26 29 12 84 -2
109 -28z m944 -5 c26 -29 27 -35 27 -130 0 -100 0 -100 25 -100 18 0 25 -5 25
-20 0 -18 -7 -20 -76 -20 -72 0 -75 1 -72 23 2 14 10 22 23 22 18 0 20 8 23
80 3 102 -9 129 -62 133 -29 3 -44 -2 -62 -19 -22 -20 -24 -31 -24 -111 0 -88
0 -88 26 -88 19 0 25 -4 22 -17 -3 -15 -15 -18 -78 -18 -62 0 -75 3 -78 17 -2
12 5 17 25 20 l28 3 0 105 0 105 -27 3 c-20 2 -28 9 -28 23 0 16 7 19 55 19
40 0 55 -4 55 -14 0 -11 8 -10 38 6 50 26 98 18 135 -22z m-561 -79 c4 -120
17 -151 65 -151 62 0 93 51 93 155 l0 65 -36 0 c-28 0 -35 3 -32 18 2 13 15
18 61 20 l57 3 0 -131 c0 -130 0 -131 23 -128 16 2 23 -3 25 -19 3 -21 0 -23
-47 -23 -44 0 -51 3 -51 20 0 25 -5 25 -31 1 -26 -24 -68 -30 -111 -17 -50 16
-68 62 -68 169 0 86 0 87 -25 87 -18 0 -25 5 -25 20 0 17 7 20 49 20 l49 0 4
-109z m765 -21 l1 -125 27 -3 c18 -2 25 -8 23 -20 -3 -14 -18 -18 -81 -20 -72
-3 -77 -1 -77 18 0 15 6 20 25 20 l25 0 0 110 0 110 -25 0 c-19 0 -25 5 -25
21 0 18 5 20 53 17 l52 -3 2 -125z"/>
<path d="M40475 1116 c-45 -45 -41 -147 8 -181 25 -17 70 -20 98 -5 53 29 64
137 18 186 -31 33 -91 33 -124 0z"/>
<path d="M39346 1117 c-74 -74 -16 -217 78 -193 63 16 91 142 41 191 -32 33
-87 34 -119 2z"/>
</g>
</svg>
